<?xml version="1.0" standalone="no"?><!DOCTYPE svg PUBLIC "-//W3C//DTD SVG 1.1//EN" "http://www.w3.org/Graphics/SVG/1.1/DTD/svg11.dtd"><svg t="1484114829209" class="icon" style="" viewBox="0 0 1024 1024" version="1.1" xmlns="http://www.w3.org/2000/svg" p-id="17305" xmlns:xlink="http://www.w3.org/1999/xlink" width="16" height="16"><defs><style type="text/css"></style></defs><path d="M200.525962 690.741628l350.117309 0c18.046743 0 25.007581-6.947076 25.007581-25.007581 0-18.047603-6.960837-25.008441-25.007581-25.008441L200.525962 640.725607c-18.414868 0.501442-30.308413 10.061519-28.281144 25.509022C174.589467 684.135154 182.477498 690.741628 200.525962 690.741628zM800.726816 790.775391 200.525962 790.775391c-17.877302 0-25.008441 7.130278-25.008441 25.007581 0 17.888484 14.481604 25.008441 32.358906 25.008441l585.255654 0c17.875582 0 32.601456-7.119957 32.601456-25.008441C825.733537 797.905669 818.604119 790.775391 800.726816 790.775391zM851.475648 695.041298l-22.029034-102.012006c5.373082-11.662177 4.273866-25.887469-4.174954-36.707602l-0.465317-0.586592L581.927904 265.648023c-12.040623-14.946921-33.971605-17.498856-49.11377-5.569186l-77.93076 61.190518c-15.288383 12.028582-17.974494 34.301885-6.0087 49.625533l225.051883 303.678468c8.718894 11.112569 22.224278 15.704675 34.777524 13.297238l92.512136 46.427659c7.78998 3.89456 16.999134 2.967366 23.860199-2.382493l18.315956-14.408495C850.133022 712.196111 853.28273 703.429051 851.475648 695.041298zM703.867705 639.575645 489.978277 350.906886l63.15586-49.686601 230.643431 275.531501L703.867705 639.575645zM751.56402 659.17574l39.514988-31.08939 12.333059 57.099854L751.56402 659.17574z" p-id="17306" fill="#e6cc89"></path></svg>